<svg xmlns="http://www.w3.org/2000/svg" viewBox="0 0 1600 900"><defs><linearGradient id="road" x2="0" y2="1"><stop stop-color="#8b806b"/><stop offset="1" stop-color="#4b4438"/></linearGradient></defs><rect width="1600" height="900" fill="#dfd4bd"/><rect x="40" y="40" width="1520" height="820" fill="#9d9279" stroke="#111" stroke-width="18"/><rect x="40" y="570" width="1520" height="290" fill="url(#road)"/><g fill="#6a6659" stroke="#111" stroke-width="8"><rect x="80" y="255" width="350" height="315"/><rect x="1170" y="235" width="330" height="335"/></g><g fill="#d5c38f"><rect x="135" y="330" width="90" height="105"/><rect x="285" y="330" width="90" height="105"/><rect x="1220" y="320" width="85" height="100"/><rect x="1360" y="320" width="85" height="100"/></g><path d="M580 540q220-110 440 0v320H560z" fill="#53644e" stroke="#111" stroke-width="10"/><path d="M640 500q160-140 320 0" fill="none" stroke="#263227" stroke-width="28"/><g transform="translate(530 390)"><circle cx="100" cy="90" r="66" fill="#87947a" stroke="#111" stroke-width="10"/><path d="M40 55q60-75 120 0" fill="#111"/><circle cx="73" cy="95" r="8"/><circle cx="125" cy="95" r="8"/><path d="M38 150h125l35 185H5z" fill="#52362f" stroke="#111" stroke-width="10"/><rect x="28" y="330" width="45" height="92" fill="#222" stroke="#111" stroke-width="9"/><rect x="103" y="330" width="45" height="92" fill="#222" stroke="#111" stroke-width="9"/></g><g><rect x="105" y="95" width="670" height="130" fill="#f5e9c9" stroke="#111" stroke-width="10"/><text x="145" y="155" font-family="Georgia" font-size="38" font-weight="700">He followed the smell of breakfast toward town.</text><text x="145" y="198" font-family="Georgia" font-size="29">Being dead had not cancelled being late.</text></g><g><ellipse cx="1030" cy="605" rx="200" ry="92" fill="#fff" stroke="#111" stroke-width="9"/><text x="900" y="615" font-family="Arial" font-size="34" font-weight="700">Okay. New rule:</text><text x="905" y="655" font-family="Arial" font-size="30">nobody panic.</text></g><text x="75" y="835" font-family="Arial" font-size="24" font-weight="900">XANDER ZOMBIE • ISSUE 01 • PANEL 2</text></svg>