<svg xmlns="http://www.w3.org/2000/svg" viewBox="0 0 1600 900"><defs><linearGradient id="sky" x2="0" y2="1"><stop stop-color="#28382d"/><stop offset=".55" stop-color="#17231b"/><stop offset="1" stop-color="#0a100d"/></linearGradient><linearGradient id="ground" x2="0" y2="1"><stop stop-color="#182119"/><stop offset="1" stop-color="#070b08"/></linearGradient><radialGradient id="door"><stop stop-color="#d7a65f" stop-opacity=".8"/><stop offset="1" stop-color="#d7a65f" stop-opacity="0"/></radialGradient></defs><rect width="1600" height="900" fill="url(#sky)"/><rect y="600" width="1600" height="300" fill="url(#ground)"/><circle cx="820" cy="380" r="370" fill="#92ad8a" opacity=".06"/><g fill="#080d09"><path d="M0 0h230l-50 900H0z"/><path d="M1600 0h-240l55 900h185z"/><path d="M240 0h120l-35 900H170z"/><path d="M1260 0h130l45 900h-210z"/></g><g fill="#101912"><ellipse cx="330" cy="560" rx="220" ry="190"/><ellipse cx="1270" cy="560" rx="230" ry="200"/></g><path d="M620 610Q800 520 980 610L1050 900H540z" fill="#24271d" opacity=".85"/><path d="M720 585Q805 555 890 585L930 900H670z" fill="#4c4935" opacity=".45"/><g transform="translate(615 205)"><path d="M35 245L250 70 470 245 430 560H70z" fill="#3b2b20" stroke="#1d1713" stroke-width="18"/><path d="M0 245L250 15 505 245 440 275 250 125 65 278z" fill="#292219"/><path d="M35 245L250 70 470 245" fill="none" stroke="#6b7350" stroke-width="28" opacity=".65"/><rect x="205" y="295" width="100" height="265" rx="44" fill="#21180f" stroke="#130e0a" stroke-width="12"/><ellipse cx="255" cy="410" rx="185" ry="205" fill="url(#door)"/><circle cx="283" cy="430" r="8" fill="#aa8a53"/></g><g fill="#8e9b75"><ellipse cx="250" cy="730" rx="35" ry="18"/><ellipse cx="312" cy="755" rx="22" ry="14"/><ellipse cx="1210" cy="748" rx="25" ry="15"/></g><g fill="#d7d1ba"><path d="M250 715q30-45 60 0z"/><path d="M300 742q22-34 44 0z"/></g><g opacity=".18" fill="#d6e1d2"><ellipse cx="780" cy="740" rx="430" ry="75"/><ellipse cx="920" cy="820" rx="520" ry="65"/></g></svg>