<svg xmlns="http://www.w3.org/2000/svg" viewBox="0 0 180 180"><path d="M37 70c8-34 29-51 53-51s45 17 53 51c-22-9-84-9-106 0z" fill="#17100b"/><path d="M57 54c17-8 49-8 66 0" fill="none" stroke="#8c1f18" stroke-width="10"/><circle cx="90" cy="88" r="40" fill="#e7c783" stroke="#17100b" stroke-width="6"/><circle cx="75" cy="84" r="6" fill="#17100b"/><circle cx="105" cy="84" r="6" fill="#17100b"/><path d="M84 99l6-8 6 8z" fill="#17100b"/><path d="M64 106c8 16 18 23 26 23s18-7 26-23c-4 28-14 48-26 57-12-9-22-29-26-57z" fill="#17100b"/><path d="M90 126v31" stroke="#2c83a1" stroke-width="8" stroke-linecap="round"/><path d="M90 151c-8-10-7-18 0-27 7 9 8 17 0 27z" fill="#5fb9d3"/><circle cx="90" cy="39" r="7" fill="#d5a41b"/><path d="M90 32v-15" stroke="#17100b" stroke-width="5"/><path d="M90 10l6 10-6 5-6-5z" fill="#b21e18"/></svg>